<svg width="11" height="20" viewBox="0 0 11 20" fill="none" xmlns="http://www.w3.org/2000/svg">
<path d="M0.228009 10.5488L9.4786 19.7738C9.78168 20.0759 10.2724 20.0754 10.575 19.7723C10.8773 19.4692 10.8765 18.9782 10.5734 18.6759L1.87343 9.99997L10.5737 1.32407C10.8768 1.02172 10.8776 0.531061 10.5753 0.227938C10.4236 0.0759849 10.2249 7.57898e-06 10.0262 7.56161e-06C9.82797 7.54428e-06 9.63004 0.0754775 9.47864 0.226375L0.228009 9.45114C0.0820331 9.59637 0.000119148 9.79403 0.00011913 9.99997C0.000119112 10.2059 0.0822676 10.4033 0.228009 10.5488Z" fill="url(#paint0_linear_2085_50)"/>
<defs>
<linearGradient id="paint0_linear_2085_50" x1="5.40082" y1="20" x2="5.40082" y2="7.15725e-06" gradientUnits="userSpaceOnUse">
<stop stop-color="#535353"/>
<stop offset="1" stop-color="#202020"/>
</linearGradient>
</defs>
</svg>
