<svg width="17" height="16" viewBox="0 0 17 16" fill="none" xmlns="http://www.w3.org/2000/svg">
<g clip-path="url(#clip0_2094_2119)">
<path d="M15.9663 5.13855H11.8197L9.94361 6.98177C9.68952 7.23133 9.35321 7.3688 8.99699 7.3688C8.63168 7.3688 8.28949 7.22524 8.03336 6.96458C7.53852 6.46046 7.52043 5.66464 7.97268 5.13858H1.76902C1.27124 5.13855 0.867676 5.54211 0.867676 6.04011V6.34064C0.867676 6.83117 1.25993 7.22974 1.74818 7.24083L2.71996 13.192C2.83749 13.9126 3.46049 14.4418 4.19064 14.4418H13.5431C14.2735 14.4418 14.8961 13.9126 15.0138 13.192L15.9858 7.24083C16.4743 7.23042 16.8677 6.83183 16.8677 6.34064V6.04011C16.8677 5.54211 16.4641 5.13855 15.9663 5.13855ZM5.66677 12.817C5.58683 12.9055 5.47293 12.9562 5.3538 12.9562H5.11852C4.90858 12.9562 4.7308 12.8018 4.70133 12.5941L4.18386 8.93527C4.16686 8.81433 4.20286 8.69205 4.2828 8.59986C4.36277 8.50792 4.47896 8.45492 4.60099 8.45492H4.97061C5.18643 8.45492 5.36714 8.61777 5.38958 8.83224L5.77277 12.4913C5.78499 12.61 5.74649 12.7282 5.66677 12.817ZM8.07821 12.8292C7.99914 12.9103 7.89046 12.9562 7.77699 12.9562H7.53605C7.31318 12.9562 7.12886 12.7825 7.11574 12.5601L6.89833 8.90108C6.89152 8.78533 6.93274 8.67164 7.01224 8.58739C7.09193 8.50292 7.20271 8.45489 7.31886 8.45489H7.69436C7.9233 8.45489 8.11018 8.63789 8.11536 8.86639L8.19824 12.5255C8.20074 12.6387 8.15749 12.7483 8.07821 12.8292ZM10.6183 12.5601C10.6049 12.7825 10.4206 12.9562 10.1977 12.9562H9.95677C9.84333 12.9562 9.73483 12.9103 9.6558 12.8292C9.5763 12.7483 9.53305 12.6387 9.53555 12.5255L9.61868 8.86642C9.62368 8.63792 9.81074 8.45492 10.0397 8.45492H10.4152C10.5309 8.45492 10.6421 8.50296 10.7216 8.58742C10.8011 8.67167 10.8423 8.78536 10.8355 8.90111L10.6183 12.5601ZM13.5499 8.93527L13.0324 12.5941C13.0032 12.8018 12.8252 12.9562 12.6155 12.9562H12.3802C12.2609 12.9562 12.147 12.9055 12.0672 12.817C11.9873 12.7282 11.9488 12.61 11.9612 12.4913L12.3442 8.83224C12.3666 8.61777 12.5476 8.45492 12.7632 8.45492H13.1328C13.2549 8.45492 13.3708 8.50792 13.4508 8.59986C13.5309 8.69205 13.5671 8.81433 13.5499 8.93527Z" fill="white"/>
<path d="M9.54324 6.57387L13.2895 2.89399C13.5966 2.59208 13.6009 2.09862 13.2992 1.79152C12.9976 1.48443 12.5039 1.4799 12.1968 1.78158L8.45074 5.4619C8.14365 5.76355 8.13934 6.25702 8.44078 6.56412C8.74268 6.87121 9.2359 6.87574 9.54324 6.57387Z" fill="white"/>
</g>
<defs>
<clipPath id="clip0_2094_2119">
<rect width="16" height="16" fill="white" transform="translate(0.867676)"/>
</clipPath>
</defs>
</svg>
