<svg width="33" height="29" viewBox="0 0 33 29" fill="none" xmlns="http://www.w3.org/2000/svg">
<path d="M0.174 14.434C0.174 10.318 1.38267 7.05133 3.8 4.63399C6.28267 2.15133 9.71267 0.87733 14.09 0.811997V6.496C11.8033 6.62666 10.1373 7.28 9.092 8.456C8.112 9.632 7.622 11.6247 7.622 14.434H14.09V28.448H0.174V14.434ZM32.22 6.496C29.9333 6.62666 28.2673 7.31266 27.222 8.554C26.1767 9.73 25.654 11.69 25.654 14.434H32.22V28.448H18.304V14.434C18.304 10.318 19.5127 7.05133 21.93 4.63399C24.4127 2.15133 27.8427 0.87733 32.22 0.811997V6.496Z" fill="#B5B5B5"/>
</svg>
