<svg width="26" height="26" viewBox="0 0 26 26" fill="none" xmlns="http://www.w3.org/2000/svg">
<path d="M24.5353 8.34985H17.797L14.7484 11.3451C14.3355 11.7506 13.789 11.974 13.2101 11.974C12.6165 11.974 12.0604 11.7407 11.6442 11.3172C10.8401 10.498 10.8107 9.20476 11.5456 8.3499H1.46468C0.655789 8.34985 0 9.00564 0 9.81489V10.3033C0 11.1004 0.637406 11.748 1.43081 11.7661L3.00996 21.4366C3.20095 22.6077 4.21332 23.4677 5.39982 23.4677H20.5976C21.7844 23.4677 22.7961 22.6077 22.9875 21.4366L24.567 11.7661C25.3608 11.7492 26 11.1014 26 10.3033V9.81489C26 9.00564 25.3442 8.34985 24.5353 8.34985ZM7.79853 20.8273C7.66863 20.9711 7.48353 21.0536 7.28995 21.0536H6.90762C6.56647 21.0536 6.27758 20.8026 6.22969 20.4651L5.3888 14.5195C5.36118 14.323 5.41968 14.1243 5.54958 13.9745C5.67953 13.8251 5.86833 13.739 6.06663 13.739H6.66727C7.01797 13.739 7.31164 14.0036 7.3481 14.3521L7.97078 20.2981C7.99063 20.4909 7.92807 20.683 7.79853 20.8273ZM11.7171 20.8471C11.5886 20.9789 11.412 21.0536 11.2276 21.0536H10.8361C10.4739 21.0536 10.1744 20.7714 10.1531 20.4099L9.79982 14.464C9.78875 14.2759 9.85573 14.0911 9.98491 13.9542C10.1144 13.817 10.2944 13.7389 10.4832 13.7389H11.0934C11.4654 13.7389 11.7691 14.0363 11.7775 14.4076L11.9122 20.3536C11.9162 20.5377 11.8459 20.7157 11.7171 20.8471ZM15.8448 20.4099C15.823 20.7714 15.5235 21.0536 15.1614 21.0536H14.7698C14.5854 21.0536 14.4091 20.9789 14.2807 20.8471C14.1515 20.7157 14.0812 20.5377 14.0853 20.3536L14.2204 14.4076C14.2285 14.0363 14.5325 13.739 14.9046 13.739H15.5147C15.7027 13.739 15.8834 13.817 16.0126 13.9543C16.1418 14.0912 16.2087 14.2759 16.1977 14.464L15.8448 20.4099ZM20.6087 14.5195L19.7677 20.4651C19.7203 20.8026 19.431 21.0536 19.0902 21.0536H18.7079C18.5139 21.0536 18.3288 20.9711 18.1992 20.8273C18.0693 20.683 18.0068 20.4909 18.027 20.2981L18.6494 14.3521C18.6858 14.0036 18.9798 13.739 19.3302 13.739H19.9308C20.1292 13.739 20.3176 13.8251 20.4475 13.9745C20.5777 14.1243 20.6366 14.323 20.6087 14.5195Z" fill="url(#paint0_linear_2104_364)"/>
<path d="M14.0976 10.6824L20.1853 4.7026C20.6844 4.212 20.6913 3.41011 20.2011 2.91109C19.711 2.41206 18.9087 2.40469 18.4097 2.89494L12.3223 8.87544C11.8233 9.36564 11.8163 10.1675 12.3061 10.6665C12.7967 11.1656 13.5982 11.1729 14.0976 10.6824Z" fill="url(#paint1_linear_2104_364)"/>
<defs>
<linearGradient id="paint0_linear_2104_364" x1="13" y1="8.34985" x2="13" y2="23.4677" gradientUnits="userSpaceOnUse">
<stop stop-color="#535353"/>
<stop offset="1" stop-color="#202020"/>
</linearGradient>
<linearGradient id="paint1_linear_2104_364" x1="16.2538" y1="2.53198" x2="16.2538" y2="11.0456" gradientUnits="userSpaceOnUse">
<stop stop-color="#535353"/>
<stop offset="1" stop-color="#202020"/>
</linearGradient>
</defs>
</svg>
