<svg width="36" height="36" viewBox="0 0 36 36" fill="none" xmlns="http://www.w3.org/2000/svg">
<path d="M16.9629 10.1994C14.2064 8.97431 10.5313 11.4244 9.61243 14.4872C8.69359 17.5498 10.225 22.7565 14.2064 24.594C18.188 26.4316 21.8632 23.9815 20.3319 21.8376C15.1253 21.2251 11.7563 15.7122 13.2877 12.9558C14.819 10.1994 19.7193 11.4244 16.9629 10.1994Z" fill="url(#paint0_linear_2127_248)"/>
<path d="M23.7009 19.081C27.0699 16.3246 25.2322 10.1992 22.4758 9.58665C19.7195 8.97408 18.4943 10.5055 20.6382 12.343C23.3947 14.4869 20.0257 18.7747 17.8818 18.4685C17.8818 18.4685 20.3319 21.8374 23.7009 19.081Z" fill="url(#paint1_linear_2127_248)"/>
<path d="M7.77484 17.2434C2.56827 18.4685 2.02988 23.5721 3.18083 26.7377C4.40588 30.1067 3.48711 32.5568 5.01845 33.1693C6.46843 33.7496 11.4501 34.0882 15.7379 34.3944C20.0257 34.7007 23.3946 31.0254 22.1695 26.7376C9.91874 28.8816 7.77484 19.9998 7.77484 17.2434Z" fill="url(#paint2_linear_2127_248)"/>
<path d="M8 15.5C8.5 12.5 10.1013 8.97158 13.8006 7.73579C17.5 6.5 23 6.99979 25.5 9.49983C26.5 6.49978 24 0.289694 21.2712 1.73586C16.9999 3.99956 13.7288 0.763961 10.5 2.99987C7.27124 5.23578 7.37503 7.36136 6.27124 7.73579C3.21927 8.77107 0.44072 11.2212 0.287649 11.6806C0.134509 12.14 1.05328 17.3466 3.04404 17.4997C5.18801 15.8153 8 15.5 8 15.5Z" fill="url(#paint3_linear_2127_248)"/>
<path d="M34.4202 12.3432C31.6638 6.52404 26.4572 7.74916 26.4572 7.74916C26.4572 7.74916 26.7635 9.2805 26.1509 10.1993C29.2136 13.5682 27.0697 20.5101 24.4155 21.3273C33.6036 25.3088 35.6453 17.2435 35.9516 16.0184C36.2578 14.7933 35.0328 13.8746 34.4202 12.3432Z" fill="url(#paint4_linear_2127_248)"/>
<path d="M31.9295 23.349C30.3574 24.4628 25.9063 24.1655 23.3539 22.8382C23.4556 23.8587 22.4351 25.4929 21.9248 25.5946C23.8647 26.4117 25.7023 29.9846 22.4356 33.7621C23.763 35.0889 29.1735 34.0684 32.3386 32.0262C32.8536 31.6942 33.6653 28.351 33.8699 26.4117C34.141 23.8431 34.3802 21.6131 31.9295 23.349Z" fill="url(#paint5_linear_2127_248)"/>
<path d="M18.0863 14.9973C16.7554 15.3604 15.946 14.5565 16.4526 13.6706C16.8612 12.9557 16.8229 12.2158 15.8401 12.7517C13.7979 13.9768 15.0236 17.4475 17.576 17.1412C21.0466 15.9162 19.5153 12.7517 18.5965 12.8534C17.6777 12.9551 19.2091 14.691 18.0863 14.9973Z" fill="url(#paint6_linear_2127_248)"/>
<defs>
<linearGradient id="paint0_linear_2127_248" x1="18.3081" y1="-14.6541" x2="15.5616" y2="34.7741" gradientUnits="userSpaceOnUse">
<stop offset="0.565708" stop-color="#FF4651"/>
<stop offset="1" stop-color="white"/>
</linearGradient>
<linearGradient id="paint1_linear_2127_248" x1="23.9178" y1="-7.66128" x2="21.936" y2="26.8077" gradientUnits="userSpaceOnUse">
<stop offset="0.565708" stop-color="#FF4651"/>
<stop offset="1" stop-color="white"/>
</linearGradient>
<linearGradient id="paint2_linear_2127_248" x1="18.2788" y1="-10.1715" x2="16.3066" y2="45.1672" gradientUnits="userSpaceOnUse">
<stop offset="0.565708" stop-color="#FF4651"/>
<stop offset="1" stop-color="white"/>
</linearGradient>
<linearGradient id="paint3_linear_2127_248" x1="20.3819" y1="-23.9942" x2="19.0557" y2="27.5406" gradientUnits="userSpaceOnUse">
<stop offset="0.565708" stop-color="#FF4651"/>
<stop offset="1" stop-color="white"/>
</linearGradient>
<linearGradient id="paint4_linear_2127_248" x1="33.5682" y1="-15.96" x2="31.0802" y2="31.6116" gradientUnits="userSpaceOnUse">
<stop offset="0.565708" stop-color="#FF4651"/>
<stop offset="1" stop-color="white"/>
</linearGradient>
<linearGradient id="paint5_linear_2127_248" x1="31.4918" y1="4.17135" x2="30.0177" y2="41.6305" gradientUnits="userSpaceOnUse">
<stop offset="0.565708" stop-color="#FF4651"/>
<stop offset="1" stop-color="white"/>
</linearGradient>
<linearGradient id="paint6_linear_2127_248" x1="18.7041" y1="5.23607" x2="18.1384" y2="20.0339" gradientUnits="userSpaceOnUse">
<stop offset="0.565708" stop-color="#FF4651"/>
<stop offset="1" stop-color="white"/>
</linearGradient>
</defs>
</svg>
