<svg width="26" height="26" viewBox="0 0 26 26" fill="none" xmlns="http://www.w3.org/2000/svg">
<path d="M22.9987 21.292C24.3329 19.6875 25.2608 17.7856 25.7038 15.747C26.1469 13.7085 26.0921 11.5933 25.5442 9.58038C24.9962 7.56746 23.9711 5.71602 22.5557 4.18266C21.1402 2.6493 19.376 1.47911 17.4123 0.771093C15.4485 0.0630712 13.343 -0.161964 11.2739 0.11502C9.20471 0.392005 7.23273 1.16286 5.52474 2.36239C3.81675 3.56192 2.42298 5.15483 1.46134 7.0064C0.499689 8.85797 -0.00155412 10.9137 3.61973e-06 12.9998C0.000731428 16.0327 1.07036 18.9685 3.02119 21.292L3.00261 21.3074C3.06766 21.3858 3.142 21.4529 3.20909 21.5295C3.29273 21.6257 3.38231 21.7152 3.46929 21.8088C3.72949 22.0904 3.99656 22.3615 4.27777 22.6167C4.36279 22.6938 4.45098 22.7663 4.53796 22.8411C4.83533 23.0973 5.14051 23.3399 5.45795 23.5666C5.49893 23.5956 5.53527 23.6309 5.57653 23.66V23.6482C7.75301 25.1786 10.3494 26 13.0108 26C15.6721 26 18.2686 25.1786 20.445 23.6482V23.6598C20.4863 23.6307 20.5226 23.5954 20.5636 23.5664C20.8807 23.3397 21.1862 23.0971 21.4836 22.8409C21.5706 22.7666 21.6588 22.6936 21.7438 22.6165C22.0249 22.3612 22.2921 22.0902 22.5523 21.8086C22.639 21.7152 22.7283 21.6255 22.8125 21.5293C22.8793 21.4527 22.9539 21.3856 23.019 21.3072L22.9987 21.292ZM13.0099 5.5712C13.837 5.5712 14.6455 5.81627 15.3332 6.27542C16.0209 6.73457 16.5569 7.38717 16.8734 8.15071C17.1899 8.91424 17.2727 9.75442 17.1114 10.565C16.95 11.3755 16.5517 12.1201 15.9669 12.7045C15.3821 13.2889 14.637 13.6868 13.8258 13.8481C13.0146 14.0093 12.1738 13.9266 11.4097 13.6103C10.6455 13.294 9.99243 12.7584 9.53293 12.0713C9.07343 11.3841 8.82818 10.5762 8.82818 9.74978C8.82818 8.64155 9.26876 7.57871 10.053 6.79508C10.8372 6.01144 11.9009 5.5712 13.0099 5.5712ZM5.58229 21.292C5.59834 20.0727 6.09417 18.9088 6.96249 18.052C7.83082 17.1953 9.00181 16.7147 10.2221 16.7141H15.7978C17.0181 16.7147 18.1891 17.1953 19.0574 18.0521C19.9257 18.9088 20.4215 20.0727 20.4376 21.292C18.3996 23.1271 15.7534 24.1427 13.0099 24.1427C10.2665 24.1427 7.62034 23.1271 5.58229 21.292Z" fill="url(#paint0_linear_2104_368)"/>
<defs>
<linearGradient id="paint0_linear_2104_368" x1="13" y1="0" x2="13" y2="26" gradientUnits="userSpaceOnUse">
<stop stop-color="#535353"/>
<stop offset="1" stop-color="#202020"/>
</linearGradient>
</defs>
</svg>
